<svg width="900" height="360" viewBox="0 0 900 360" fill="none" xmlns="http://www.w3.org/2000/svg">
  <defs>
    <linearGradient id="b" x1="0" y1="0" x2="1" y2="1">
      <stop offset="0%" stop-color="#0EA5E9"/>
      <stop offset="100%" stop-color="#8B5CF6"/>
    </linearGradient>
  </defs>
  <rect width="900" height="360" rx="20" fill="#0B1020"/>
  <text x="28" y="42" fill="#E2E8F0" font-size="22" font-family="Inter,Arial" font-weight="700">MatrixLab Production Architecture</text>

  <rect x="36" y="90" width="180" height="80" rx="12" fill="#111827" stroke="#334155"/>
  <text x="56" y="125" fill="#F8FAFC" font-size="16" font-family="Inter,Arial" font-weight="600">Agents / CI / MCP Host</text>

  <rect x="258" y="90" width="170" height="80" rx="12" fill="#111827" stroke="#334155"/>
  <text x="286" y="125" fill="#F8FAFC" font-size="16" font-family="Inter,Arial" font-weight="600">MCP Server</text>

  <rect x="468" y="90" width="170" height="80" rx="12" fill="#111827" stroke="#334155"/>
  <text x="505" y="125" fill="#F8FAFC" font-size="16" font-family="Inter,Arial" font-weight="600">Runner API</text>

  <rect x="678" y="72" width="186" height="116" rx="12" fill="#111827" stroke="#334155"/>
  <text x="698" y="102" fill="#F8FAFC" font-size="14" font-family="Inter,Arial" font-weight="600">Ephemeral Sandboxes</text>
  <text x="698" y="126" fill="#94A3B8" font-size="13" font-family="Inter,Arial">• python • node • go • rust</text>
  <text x="698" y="146" fill="#94A3B8" font-size="13" font-family="Inter,Arial">• read-only rootfs</text>
  <text x="698" y="166" fill="#94A3B8" font-size="13" font-family="Inter,Arial">• no-new-privileges</text>

  <path d="M216 130H258" stroke="url(#b)" stroke-width="4"/>
  <path d="M428 130H468" stroke="url(#b)" stroke-width="4"/>
  <path d="M638 130H678" stroke="url(#b)" stroke-width="4"/>

  <rect x="36" y="220" width="828" height="104" rx="12" fill="#111827" stroke="#334155"/>
  <text x="58" y="250" fill="#E2E8F0" font-size="16" font-family="Inter,Arial" font-weight="600">Enterprise Controls</text>
  <text x="58" y="276" fill="#94A3B8" font-size="14" font-family="Inter,Arial">Policy gates • Resource limits • Audit artifacts • Deterministic pipeline • HF Space control-plane compatibility</text>
  <text x="58" y="300" fill="#94A3B8" font-size="14" font-family="Inter,Arial">Matrix Maintainer mode: organization-wide dry-run and execution workflows for agent-matrix repositories</text>
</svg>
